<svg width="54" height="71" viewBox="0 0 54 71" fill="none" xmlns="http://www.w3.org/2000/svg">
<path d="M31.9716 11.2841C32.301 10.9277 32.486 10.4443 32.486 9.94029C32.486 9.43628 32.301 8.95291 31.9716 8.59647L24.5189 0.533558C24.1876 0.187324 23.7438 -0.00425881 23.2831 7.18527e-05C22.8225 0.00440252 22.3818 0.204301 22.0561 0.556712C21.7303 0.909123 21.5456 1.38585 21.5416 1.88422C21.5376 2.38258 21.7147 2.86271 22.0347 3.2212L25.5379 7.01126C20.1368 7.33606 14.9589 9.45121 10.7072 13.0695C6.4555 16.6879 3.33604 21.6341 1.77231 27.2366C0.208581 32.8391 0.276355 38.8265 1.96643 44.386C3.6565 49.9454 6.88699 54.8075 11.2193 58.3121C11.5921 58.6145 12.0606 58.7444 12.5219 58.6731C12.9832 58.6018 13.3994 58.3352 13.6789 57.9319C13.9585 57.5286 14.0786 57.0217 14.0127 56.5227C13.9468 56.0236 13.7003 55.5733 13.3276 55.2709C9.14619 51.8893 6.16181 47.06 4.87146 41.5872C3.5811 36.1145 4.06265 30.3287 6.23591 25.1934C8.40917 20.0581 12.143 15.8833 16.8154 13.3642C21.4879 10.8451 26.8171 10.1338 31.9154 11.3487L31.9716 11.2841ZM22.0347 59.6692L22.0909 59.6084C23.5269 59.9505 25.0073 60.1406 26.5323 60.1786L26.5112 60.2014L26.7712 60.1862C31.588 60.2403 36.2973 58.6454 40.2258 55.6295C44.1542 52.6135 47.1007 48.3311 48.644 43.3943C50.1873 38.4576 50.2483 33.1193 48.8183 28.1428C47.3883 23.1663 44.5406 18.8063 40.6823 15.6862C40.4977 15.5364 40.3422 15.3488 40.2246 15.134C40.1071 14.9192 40.0298 14.6815 39.9972 14.4344C39.9645 14.1873 39.9772 13.9357 40.0345 13.6939C40.0917 13.4521 40.1924 13.2249 40.3309 13.0252C40.4693 12.8255 40.6427 12.6573 40.8413 12.5301C41.0398 12.4029 41.2595 12.3193 41.4879 12.284C41.7163 12.2487 41.9489 12.2624 42.1724 12.3244C42.3959 12.3863 42.6059 12.4953 42.7905 12.645C43.7837 13.4484 44.7325 14.3392 45.6367 15.3175C49.2332 19.2094 51.7117 24.1442 52.7731 29.5264C53.8344 34.9086 53.4333 40.5082 51.6181 45.6492C49.803 50.7902 46.6513 55.253 42.5435 58.499C38.4357 61.7449 33.5473 63.6353 28.4684 63.942L31.9716 67.7321C32.1394 67.9074 32.2733 68.1172 32.3653 68.3491C32.4574 68.581 32.5059 68.8304 32.5079 69.0828C32.5099 69.3351 32.4655 69.5854 32.3771 69.819C32.2888 70.0526 32.1584 70.2648 31.9934 70.4433C31.8284 70.6217 31.6323 70.7629 31.4164 70.8585C31.2004 70.954 30.9691 71.0021 30.7358 70.9999C30.5025 70.9977 30.272 70.9453 30.0577 70.8457C29.8433 70.7461 29.6495 70.6013 29.4874 70.4197L22.0347 62.3606C21.8711 62.1841 21.7413 61.9743 21.6527 61.7434C21.5641 61.5125 21.5185 61.2649 21.5185 61.0149C21.5185 60.7649 21.5641 60.5173 21.6527 60.2864C21.7413 60.0555 21.8711 59.8457 22.0347 59.6692ZM35.2746 28.4287C35.4382 28.6053 35.568 28.815 35.6566 29.046C35.7451 29.2769 35.7907 29.5244 35.7907 29.7744C35.7907 30.0245 35.7451 30.272 35.6566 30.5029C35.568 30.7339 35.4382 30.9436 35.2746 31.1202L24.7333 42.5246C24.5701 42.7016 24.3762 42.842 24.1627 42.9378C23.9493 43.0337 23.7205 43.083 23.4894 43.083C23.2583 43.083 23.0295 43.0337 22.816 42.9378C22.6026 42.842 22.4087 42.7016 22.2455 42.5246L16.9749 36.8224C16.645 36.4655 16.4596 35.9814 16.4596 35.4766C16.4596 34.9719 16.645 34.4878 16.9749 34.1309C17.3048 33.774 17.7522 33.5735 18.2187 33.5735C18.6853 33.5735 19.1327 33.774 19.4626 34.1309L23.4894 38.4912L32.7868 28.4287C32.95 28.2517 33.1439 28.1113 33.3573 28.0155C33.5708 27.9196 33.7996 27.8703 34.0307 27.8703C34.2618 27.8703 34.4906 27.9196 34.704 28.0155C34.9175 28.1113 35.1114 28.2517 35.2746 28.4287ZM9.43431 35.4804C9.43431 30.4394 11.2853 25.6048 14.5801 22.0402C17.8749 18.4757 22.3436 16.4731 27.0032 16.4731C31.6627 16.4731 36.1314 18.4757 39.4262 22.0402C42.721 25.6048 44.572 30.4394 44.572 35.4804C44.572 40.5215 42.721 45.3561 39.4262 48.9207C36.1314 52.4852 31.6627 54.4878 27.0032 54.4878C22.3436 54.4878 17.8749 52.4852 14.5801 48.9207C11.2853 45.3561 9.43431 40.5215 9.43431 35.4804ZM27.0032 20.2746C23.2755 20.2746 19.7005 21.8766 17.0647 24.7283C14.4289 27.5799 12.9481 31.4476 12.9481 35.4804C12.9481 39.5133 14.4289 43.381 17.0647 46.2326C19.7005 49.0843 23.2755 50.6863 27.0032 50.6863C30.7308 50.6863 34.3058 49.0843 36.9416 46.2326C39.5774 43.381 41.0582 39.5133 41.0582 35.4804C41.0582 31.4476 39.5774 27.5799 36.9416 24.7283C34.3058 21.8766 30.7308 20.2746 27.0032 20.2746Z" fill="white"/>
</svg>
