<svg width="69" height="73" viewBox="0 0 69 73" fill="none" xmlns="http://www.w3.org/2000/svg">
<path d="M44.1753 38.8834C44.5806 37.9417 45.704 37.0694 46.6727 36.9526C47.6415 36.8358 48.5244 35.8941 48.6343 34.8648C48.7511 33.8428 49.5687 32.6456 50.4516 32.2112C50.8963 31.9707 51.2583 31.5872 51.4859 31.1153C51.7135 30.6435 51.7952 30.1073 51.7192 29.5832C51.5199 28.5685 51.9528 27.1633 52.6673 26.4661C53.0217 26.0904 53.2548 25.605 53.3332 25.0797C53.4116 24.5544 53.3312 24.0162 53.1036 23.5425C52.868 23.0331 52.7455 22.473 52.7455 21.9054C52.7455 21.3379 52.868 20.7778 53.1036 20.2684C53.3318 19.7948 53.4124 19.2565 53.334 18.731C53.2556 18.2056 53.0222 17.7202 52.6673 17.3448C51.9528 16.6403 51.5234 15.2387 51.7192 14.2277C51.7962 13.7025 51.7151 13.165 51.4874 12.6917C51.2598 12.2185 50.8972 11.8337 50.4516 11.5924C49.9796 11.3248 49.5708 10.947 49.256 10.4874C48.9413 10.0278 48.7287 9.49832 48.6343 8.93882C48.556 8.41566 48.3241 7.93214 47.9719 7.55723C47.6197 7.18232 47.165 6.93517 46.6727 6.85102C46.146 6.75266 45.6472 6.52796 45.2144 6.19401C44.7817 5.86006 44.4263 5.42565 44.1753 4.92382C43.9486 4.45044 43.5862 4.06589 43.1404 3.82575C42.6945 3.58561 42.1883 3.50232 41.695 3.58792C41.1656 3.66677 40.6262 3.61636 40.1178 3.44054C39.6095 3.26471 39.1455 2.9681 38.7613 2.57322C38.0982 1.80672 36.8615 1.60232 36.013 2.10967C35.1645 2.61702 33.7732 2.61702 32.9281 2.10967C32.4836 1.86409 31.9768 1.7759 31.4818 1.85798C30.9868 1.94006 30.5294 2.18811 30.1765 2.56592C29.7925 2.96125 29.3285 3.25817 28.8201 3.43402C28.3117 3.60987 27.7722 3.66002 27.2427 3.58062C26.75 3.4964 26.2449 3.58078 25.8003 3.82157C25.3557 4.06235 24.9946 4.44708 24.7693 4.92017C24.3605 5.85457 23.2372 6.72692 22.2684 6.84372C21.7753 6.92791 21.3197 7.17546 20.9669 7.55104C20.614 7.92663 20.3818 8.41105 20.3034 8.93517C20.2102 9.49466 19.9981 10.0242 19.6832 10.4834C19.3683 10.9426 18.9589 11.3194 18.4862 11.5851C18.042 11.8276 17.6814 12.213 17.4556 12.6862C17.2298 13.1595 17.1504 13.6964 17.2288 14.2204C17.4178 15.2314 16.9884 16.6367 16.2738 17.3375C15.5593 18.0383 15.36 19.3523 15.8375 20.2611C16.315 21.159 16.315 22.6373 15.8375 23.5352C15.6097 24.0095 15.5291 24.5483 15.6075 25.0742C15.6859 25.6002 15.9192 26.0862 16.2738 26.4625C16.9918 27.156 17.4178 28.5612 17.2288 29.5796C17.1504 30.1026 17.2298 30.6385 17.4556 31.1106C17.6815 31.5827 18.0422 31.9667 18.4862 32.2076C19.3725 32.6419 20.1866 33.8391 20.3 34.8611C20.4168 35.8904 21.2962 36.8321 22.265 36.9489C23.2337 37.0657 24.3571 37.9417 24.7659 38.8798C24.993 39.3511 25.3544 39.734 25.7987 39.9739C26.2429 40.2139 26.7471 40.2985 27.2393 40.2157C28.1943 40.0149 29.5169 40.4675 30.173 41.2304C30.5269 41.6064 30.9837 41.8538 31.478 41.937C31.9723 42.0203 32.4787 41.9352 32.9247 41.6939C33.7698 41.1866 35.1611 41.1866 36.0096 41.6939C36.8581 42.2013 38.0948 41.9896 38.7578 41.2304C39.4208 40.4639 40.7366 40.0149 41.6916 40.2157C42.1849 40.3001 42.6907 40.2167 43.1367 39.9775C43.5828 39.7382 43.9463 39.3553 44.1753 38.8834ZM34.4706 34.3063C31.3728 34.3063 28.402 32.9988 26.2116 30.6715C24.0211 28.3442 22.7906 25.1877 22.7906 21.8963C22.7906 18.605 24.0211 15.4485 26.2116 13.1211C28.402 10.7938 31.3728 9.48632 34.4706 9.48632C37.5683 9.48632 40.5392 10.7938 42.7296 13.1211C44.92 15.4485 46.1506 18.605 46.1506 21.8963C46.1506 25.1877 44.92 28.3442 42.7296 30.6715C40.5392 32.9988 37.5683 34.3063 34.4706 34.3063ZM20.6435 41.6428L16.3734 67.3717L27.119 65.6781L36.6726 71.175L40.9255 45.5483C37.4915 46.6152 33.8709 46.8176 30.3505 46.1398C26.8301 45.4619 23.5067 43.9222 20.6435 41.6428ZM48.0778 41.818C47.005 42.6465 45.8671 43.3755 44.6768 43.9971L42.1072 59.4585L53.6807 52.7863L48.0778 41.818Z" fill="white"/>
</svg>
