<svg width="63" height="63" viewBox="0 0 63 63" fill="none" xmlns="http://www.w3.org/2000/svg">
<g filter="url(#filter0_d_515_83)">
<circle cx="29.5" cy="27.5" r="27.5" fill="white"/>
</g>
<path d="M32.0468 15.4037C32.2155 15.233 32.3103 15.0015 32.3103 14.7601C32.3103 14.5188 32.2155 14.2873 32.0468 14.1166L28.2289 10.2555C28.0592 10.0897 27.8318 9.99796 27.5958 10C27.3599 10.0021 27.1341 10.0978 26.9673 10.2666C26.8004 10.4354 26.7057 10.6636 26.7037 10.9023C26.7016 11.141 26.7924 11.3709 26.9563 11.5425L28.7509 13.3575C25.984 13.513 23.3315 14.5259 21.1535 16.2586C18.9755 17.9914 17.3774 20.36 16.5764 23.0429C15.7753 25.7258 15.81 28.593 16.6758 31.2553C17.5416 33.9175 19.1965 36.2458 21.4158 37.9241C21.6068 38.0689 21.8468 38.1311 22.0831 38.097C22.3194 38.0628 22.5326 37.9352 22.6758 37.742C22.8191 37.5489 22.8806 37.3062 22.8468 37.0672C22.813 36.8282 22.6868 36.6126 22.4958 36.4677C20.3538 34.8484 18.825 32.5358 18.164 29.915C17.503 27.2943 17.7496 24.5236 18.863 22.0645C19.9763 19.6053 21.889 17.6061 24.2826 16.3997C26.6762 15.1934 29.4062 14.8528 32.018 15.4346L32.0468 15.4037ZM26.9563 38.574L26.9851 38.5448C27.7207 38.7087 28.4791 38.7997 29.2603 38.8179L29.2495 38.8288L29.3827 38.8216C31.8503 38.8475 34.2627 38.0837 36.2752 36.6395C38.2876 35.1952 39.7971 33.1445 40.5876 30.7804C41.3782 28.4163 41.4095 25.86 40.6769 23.4768C39.9444 21.0937 38.4856 19.0058 36.509 17.5117C36.4145 17.44 36.3348 17.3501 36.2746 17.2473C36.2144 17.1444 36.1748 17.0306 36.1581 16.9123C36.1413 16.7939 36.1478 16.6734 36.1772 16.5576C36.2065 16.4418 36.2581 16.333 36.329 16.2374C36.3999 16.1418 36.4888 16.0612 36.5905 16.0003C36.6922 15.9394 36.8047 15.8994 36.9217 15.8825C37.0388 15.8656 37.1579 15.8721 37.2724 15.9018C37.3869 15.9315 37.4945 15.9836 37.589 16.0554C38.0978 16.4401 38.5838 16.8667 39.0471 17.3351C40.8895 19.1989 42.1591 21.562 42.7029 24.1394C43.2466 26.7168 43.0411 29.3983 42.1112 31.8602C41.1813 34.3221 39.5668 36.4592 37.4625 38.0136C35.3582 39.568 32.854 40.4733 30.2521 40.6201L32.0468 42.4351C32.1327 42.5191 32.2013 42.6195 32.2485 42.7305C32.2956 42.8416 32.3205 42.961 32.3215 43.0819C32.3225 43.2027 32.2998 43.3226 32.2545 43.4345C32.2093 43.5463 32.1424 43.6479 32.0579 43.7334C31.9734 43.8189 31.8729 43.8865 31.7623 43.9322C31.6517 43.978 31.5332 44.001 31.4137 44C31.2942 43.9989 31.1761 43.9738 31.0663 43.9261C30.9565 43.8784 30.8572 43.8091 30.7741 43.7221L26.9563 39.8628C26.8725 39.7783 26.806 39.6778 26.7606 39.5673C26.7152 39.4567 26.6919 39.3381 26.6919 39.2184C26.6919 39.0987 26.7152 38.9801 26.7606 38.8695C26.806 38.759 26.8725 38.6585 26.9563 38.574ZM33.7388 23.6138C33.8226 23.6983 33.8891 23.7987 33.9345 23.9093C33.9798 24.0199 34.0032 24.1385 34.0032 24.2582C34.0032 24.3779 33.9798 24.4965 33.9345 24.607C33.8891 24.7176 33.8226 24.8181 33.7388 24.9026L28.3387 30.3639C28.2551 30.4486 28.1558 30.5159 28.0465 30.5618C27.9371 30.6077 27.8199 30.6313 27.7015 30.6313C27.5831 30.6313 27.4659 30.6077 27.3566 30.5618C27.2472 30.5159 27.1479 30.4486 27.0643 30.3639L24.3643 27.6332C24.1953 27.4623 24.1003 27.2305 24.1003 26.9888C24.1003 26.7471 24.1953 26.5153 24.3643 26.3444C24.5333 26.1735 24.7625 26.0775 25.0015 26.0775C25.2405 26.0775 25.4697 26.1735 25.6387 26.3444L27.7015 28.4324L32.4644 23.6138C32.548 23.529 32.6473 23.4617 32.7566 23.4159C32.866 23.37 32.9832 23.3463 33.1016 23.3463C33.22 23.3463 33.3372 23.37 33.4465 23.4159C33.5559 23.4617 33.6552 23.529 33.7388 23.6138ZM20.5014 26.9906C20.5014 24.5766 21.4496 22.2615 23.1375 20.5545C24.8253 18.8475 27.1146 17.8885 29.5015 17.8885C31.8885 17.8885 34.1777 18.8475 35.8656 20.5545C37.5534 22.2615 38.5016 24.5766 38.5016 26.9906C38.5016 29.4047 37.5534 31.7198 35.8656 33.4268C34.1777 35.1338 31.8885 36.0927 29.5015 36.0927C27.1146 36.0927 24.8253 35.1338 23.1375 33.4268C21.4496 31.7198 20.5014 29.4047 20.5014 26.9906ZM29.5015 19.709C27.592 19.709 25.7606 20.4761 24.4103 21.8417C23.06 23.2073 22.3014 25.0594 22.3014 26.9906C22.3014 28.9219 23.06 30.774 24.4103 32.1396C25.7606 33.5051 27.592 34.2723 29.5015 34.2723C31.4111 34.2723 33.2425 33.5051 34.5928 32.1396C35.943 30.774 36.7016 28.9219 36.7016 26.9906C36.7016 25.0594 35.943 23.2073 34.5928 21.8417C33.2425 20.4761 31.4111 19.709 29.5015 19.709Z" fill="#7D7D7D" fill-opacity="0.6"/>
<defs>
<filter id="filter0_d_515_83" x="0" y="0" width="63" height="63" filterUnits="userSpaceOnUse" color-interpolation-filters="sRGB">
<feFlood flood-opacity="0" result="BackgroundImageFix"/>
<feColorMatrix in="SourceAlpha" type="matrix" values="0 0 0 0 0 0 0 0 0 0 0 0 0 0 0 0 0 0 127 0" result="hardAlpha"/>
<feOffset dx="2" dy="4"/>
<feGaussianBlur stdDeviation="2"/>
<feComposite in2="hardAlpha" operator="out"/>
<feColorMatrix type="matrix" values="0 0 0 0 0 0 0 0 0 0 0 0 0 0 0 0 0 0 0.25 0"/>
<feBlend mode="normal" in2="BackgroundImageFix" result="effect1_dropShadow_515_83"/>
<feBlend mode="normal" in="SourceGraphic" in2="effect1_dropShadow_515_83" result="shape"/>
</filter>
</defs>
</svg>
