<svg width="63" height="64" viewBox="0 0 63 64" fill="none" xmlns="http://www.w3.org/2000/svg">
<g filter="url(#filter0_d_515_90)">
<circle cx="29.5" cy="28" r="27.5" fill="white"/>
</g>
<mask id="path-2-inside-1_515_90" fill="white">
<path d="M47.3751 27.7629C47.3751 33.7055 42.3746 38.523 36.1841 38.523C29.9937 38.523 24.9844 33.7055 24.9844 27.7629C24.9844 21.8202 29.9937 17.0027 36.1841 17.0027C42.3746 17.0027 47.3751 21.8202 47.3751 27.7629Z"/>
</mask>
<path d="M35.6841 19.0046C35.6841 19.2807 35.908 19.5046 36.1841 19.5046C36.4603 19.5046 36.6841 19.2807 36.6841 19.0046H35.6841ZM42.4052 20.896C42.206 21.0872 42.1996 21.4038 42.3908 21.603C42.582 21.8022 42.8986 21.8086 43.0978 21.6174L42.4052 20.896ZM29.2048 21.6174C29.404 21.8086 29.7205 21.8022 29.9118 21.603C30.103 21.4038 30.0965 21.0872 29.8973 20.896L29.2048 21.6174ZM36.6841 36.5211C36.6841 36.245 36.4603 36.0211 36.1841 36.0211C35.908 36.0211 35.6841 36.245 35.6841 36.5211H36.6841ZM45.3076 27.2629C45.0315 27.2629 44.8076 27.4867 44.8076 27.7629C44.8076 28.039 45.0315 28.2629 45.3076 28.2629L45.3076 27.2629ZM27.0607 28.2629C27.3368 28.2629 27.5607 28.039 27.5607 27.7629C27.5607 27.4867 27.3368 27.2629 27.0607 27.2629V28.2629ZM43.0978 33.9569C42.8986 33.7656 42.582 33.7721 42.3908 33.9713C42.1996 34.1705 42.206 34.487 42.4052 34.6783L43.0978 33.9569ZM29.8973 34.6783C30.0965 34.487 30.103 34.1705 29.9118 33.9713C29.7205 33.7721 29.404 33.7656 29.2048 33.9569L29.8973 34.6783ZM36.6841 21.2567C36.6841 20.9806 36.4603 20.7567 36.1841 20.7567C35.908 20.7567 35.6841 20.9806 35.6841 21.2567H36.6841ZM36.1841 27.7629H35.6841C35.6841 28.039 35.908 28.2629 36.1841 28.2629L36.1841 27.7629ZM42.1347 28.2629C42.4108 28.2629 42.6347 28.039 42.6347 27.7629C42.6347 27.4867 42.4108 27.2629 42.1347 27.2629V28.2629ZM35.6841 17.0027V19.0046H36.6841V17.0027H35.6841ZM43.658 19.6934L42.4052 20.896L43.0978 21.6174L44.3505 20.4148L43.658 19.6934ZM27.9521 20.4148L29.2048 21.6174L29.8973 20.896L28.6446 19.6934L27.9521 20.4148ZM36.6841 38.523V36.5211H35.6841V38.523H36.6841ZM47.3751 27.2629L45.3076 27.2629L45.3076 28.2629L47.3751 28.2629L47.3751 27.2629ZM24.9844 28.2629H27.0607V27.2629H24.9844V28.2629ZM44.3505 35.1595L43.0978 33.9569L42.4052 34.6783L43.658 35.8809L44.3505 35.1595ZM28.6446 35.8809L29.8973 34.6783L29.2048 33.9569L27.9521 35.1595L28.6446 35.8809ZM35.6841 21.2567V27.7629H36.6841V21.2567H35.6841ZM36.1841 28.2629L42.1347 28.2629V27.2629L36.1841 27.2629L36.1841 28.2629ZM46.3751 27.7629C46.3751 33.1172 41.8591 37.523 36.1841 37.523V39.523C42.8901 39.523 48.3751 34.2939 48.3751 27.7629H46.3751ZM36.1841 37.523C30.5081 37.523 25.9844 33.1162 25.9844 27.7629H23.9844C23.9844 34.2949 29.4792 39.523 36.1841 39.523V37.523ZM25.9844 27.7629C25.9844 22.4095 30.5081 18.0027 36.1841 18.0027V16.0027C29.4792 16.0027 23.9844 21.2308 23.9844 27.7629H25.9844ZM36.1841 18.0027C41.8591 18.0027 46.3751 22.4085 46.3751 27.7629H48.3751C48.3751 21.2318 42.8901 16.0027 36.1841 16.0027V18.0027Z" fill="#7D7D7D" fill-opacity="0.6" mask="url(#path-2-inside-1_515_90)"/>
<path d="M49.5 27.7625C49.5 34.792 43.5579 40.5251 36.1844 40.5251C28.811 40.5251 22.8689 34.792 22.8689 27.7625C22.8689 20.733 28.811 15 36.1844 15C43.5579 15 49.5 20.733 49.5 27.7625Z" stroke="#7D7D7D" stroke-opacity="0.6"/>
<path d="M21.403 14.457C21.1268 14.457 20.903 14.6809 20.903 14.957C20.903 15.2332 21.1268 15.457 21.403 15.457V14.457ZM19.559 15.457C19.8352 15.457 20.059 15.2332 20.059 14.957C20.059 14.6809 19.8352 14.457 19.559 14.457V15.457ZM9.00002 14.457C8.72388 14.457 8.50002 14.6809 8.50002 14.957C8.50002 15.2332 8.72388 15.457 9.00002 15.457V14.457ZM26.408 19.4743C26.6841 19.4743 26.908 19.2505 26.908 18.9743C26.908 18.6982 26.6841 18.4743 26.408 18.4743V19.4743ZM18.2419 18.4743C17.9658 18.4743 17.7419 18.6982 17.7419 18.9743C17.7419 19.2505 17.9658 19.4743 18.2419 19.4743V18.4743ZM22.9835 31.0241C23.2596 31.0241 23.4835 30.8003 23.4835 30.5241C23.4835 30.248 23.2596 30.0241 22.9835 30.0241V31.0241ZM19.2956 30.0241C19.0195 30.0241 18.7956 30.248 18.7956 30.5241C18.7956 30.8003 19.0195 31.0241 19.2956 31.0241V30.0241ZM22.9835 25.5003C23.2596 25.5003 23.4835 25.2765 23.4835 25.0003C23.4835 24.7242 23.2596 24.5003 22.9835 24.5003V25.5003ZM19.559 24.5003C19.2829 24.5003 19.059 24.7242 19.059 25.0003C19.059 25.2765 19.2829 25.5003 19.559 25.5003V24.5003ZM18.5054 28.2622C18.7815 28.2622 19.0054 28.0384 19.0054 27.7622C19.0054 27.4861 18.7815 27.2622 18.5054 27.2622V28.2622ZM14.8175 27.2622C14.5413 27.2622 14.3175 27.4861 14.3175 27.7622C14.3175 28.0384 14.5413 28.2622 14.8175 28.2622V27.2622ZM26.1754 36.799C26.4515 36.799 26.6754 36.5752 26.6754 36.299C26.6754 36.0229 26.4515 35.799 26.1754 35.799V36.799ZM18.2419 35.799C17.9658 35.799 17.7419 36.0229 17.7419 36.299C17.7419 36.5752 17.9658 36.799 18.2419 36.799V35.799ZM16.1346 19.4743C16.4107 19.4743 16.6346 19.2505 16.6346 18.9743C16.6346 18.6982 16.4107 18.4743 16.1346 18.4743V19.4743ZM14.8175 18.4743C14.5413 18.4743 14.3175 18.6982 14.3175 18.9743C14.3175 19.2505 14.5413 19.4743 14.8175 19.4743V18.4743ZM16.1346 36.799C16.4107 36.799 16.6346 36.5752 16.6346 36.299C16.6346 36.0229 16.4107 35.799 16.1346 35.799V36.799ZM14.8175 35.799C14.5413 35.799 14.3175 36.0229 14.3175 36.299C14.3175 36.5752 14.5413 36.799 14.8175 36.799V35.799ZM21.6664 40.0674C21.3903 40.0674 21.1664 40.2913 21.1664 40.5674C21.1664 40.8436 21.3903 41.0674 21.6664 41.0674V40.0674ZM19.8225 41.0674C20.0986 41.0674 20.3225 40.8436 20.3225 40.5674C20.3225 40.2913 20.0986 40.0674 19.8225 40.0674V41.0674ZM11.6454 40.0674C11.3693 40.0674 11.1454 40.2913 11.1454 40.5674C11.1454 40.8436 11.3693 41.0674 11.6454 41.0674V40.0674ZM36.1545 14.457H21.403V15.457H36.1545V14.457ZM19.559 14.457H9.00002V15.457H19.559V14.457ZM26.408 18.4743H18.2419V19.4743H26.408V18.4743ZM22.9835 30.0241H19.2956V31.0241H22.9835V30.0241ZM22.9835 24.5003H19.559V25.5003H22.9835V24.5003ZM18.5054 27.2622H14.8175V28.2622H18.5054V27.2622ZM26.1754 35.799H18.2419V36.799H26.1754V35.799ZM16.1346 18.4743H14.8175V19.4743H16.1346V18.4743ZM16.1346 35.799H14.8175V36.799H16.1346V35.799ZM36.4179 40.0674H21.6664V41.0674H36.4179V40.0674ZM19.8225 40.0674H11.6454V41.0674H19.8225V40.0674Z" fill="#7D7D7D" fill-opacity="0.6"/>
<defs>
<filter id="filter0_d_515_90" x="0" y="0.5" width="63" height="63" filterUnits="userSpaceOnUse" color-interpolation-filters="sRGB">
<feFlood flood-opacity="0" result="BackgroundImageFix"/>
<feColorMatrix in="SourceAlpha" type="matrix" values="0 0 0 0 0 0 0 0 0 0 0 0 0 0 0 0 0 0 127 0" result="hardAlpha"/>
<feOffset dx="2" dy="4"/>
<feGaussianBlur stdDeviation="2"/>
<feComposite in2="hardAlpha" operator="out"/>
<feColorMatrix type="matrix" values="0 0 0 0 0 0 0 0 0 0 0 0 0 0 0 0 0 0 0.25 0"/>
<feBlend mode="normal" in2="BackgroundImageFix" result="effect1_dropShadow_515_90"/>
<feBlend mode="normal" in="SourceGraphic" in2="effect1_dropShadow_515_90" result="shape"/>
</filter>
</defs>
</svg>
