<svg width="63" height="63" viewBox="0 0 63 63" fill="none" xmlns="http://www.w3.org/2000/svg">
<g filter="url(#filter0_d_515_103)">
<circle cx="29.5" cy="27.5" r="27.5" fill="white"/>
</g>
<path d="M30 43.9983C26.5554 42.9641 23.6943 40.8548 21.4166 37.6704C19.1389 34.4859 18 30.8976 18 26.9055V17.5323L30 13L42 17.5323V26.9055C42 30.8964 40.8611 34.4842 38.5834 37.6686C36.3057 40.8531 33.4446 42.9618 30 43.9983ZM30 42.1593C32.9714 41.2061 35.4286 39.2996 37.3714 36.4398C39.3143 33.58 40.2857 30.4025 40.2857 26.9072V18.7161L30 14.8511L19.7143 18.7161V26.9055C19.7143 30.4007 20.6857 33.5783 22.6286 36.4381C24.5714 39.2978 27.0286 41.2061 30 42.1593ZM26.6383 34.7984H33.3617C33.7549 34.7984 34.084 34.6644 34.3491 34.3963C34.6143 34.1283 34.7469 33.7955 34.7469 33.398V28.3319C34.7469 27.9356 34.6143 27.6034 34.3491 27.3353C34.084 27.0672 33.7549 26.9332 33.3617 26.9332H33.0651V25.2C33.0651 24.3345 32.7737 23.6066 32.1909 23.0162C31.608 22.4269 30.8886 22.1322 30.0326 22.1322C29.1766 22.1322 28.4571 22.4269 27.8743 23.0162C27.2914 23.6054 27 24.3334 27 25.2V26.9332H26.6366C26.2446 26.9332 25.916 27.0672 25.6509 27.3353C25.3857 27.6034 25.2531 27.9356 25.2531 28.3319V33.398C25.2531 33.7955 25.3857 34.1283 25.6509 34.3963C25.916 34.6644 26.2451 34.7984 26.6383 34.7984ZM28.3183 26.9332V25.2C28.3183 24.7089 28.4829 24.297 28.812 23.9642C29.1411 23.6314 29.548 23.4651 30.0326 23.4651C30.5171 23.4651 30.9246 23.6314 31.2549 23.9642C31.5851 24.297 31.7491 24.7089 31.7469 25.2V26.9332H28.3183Z" fill="#7D7D7D" fill-opacity="0.6"/>
<defs>
<filter id="filter0_d_515_103" x="0" y="0" width="63" height="63" filterUnits="userSpaceOnUse" color-interpolation-filters="sRGB">
<feFlood flood-opacity="0" result="BackgroundImageFix"/>
<feColorMatrix in="SourceAlpha" type="matrix" values="0 0 0 0 0 0 0 0 0 0 0 0 0 0 0 0 0 0 127 0" result="hardAlpha"/>
<feOffset dx="2" dy="4"/>
<feGaussianBlur stdDeviation="2"/>
<feComposite in2="hardAlpha" operator="out"/>
<feColorMatrix type="matrix" values="0 0 0 0 0 0 0 0 0 0 0 0 0 0 0 0 0 0 0.25 0"/>
<feBlend mode="normal" in2="BackgroundImageFix" result="effect1_dropShadow_515_103"/>
<feBlend mode="normal" in="SourceGraphic" in2="effect1_dropShadow_515_103" result="shape"/>
</filter>
</defs>
</svg>
