<svg width="63" height="63" viewBox="0 0 63 63" fill="none" xmlns="http://www.w3.org/2000/svg">
<g filter="url(#filter0_d_515_76)">
<circle cx="29.5" cy="27.5" r="27.5" fill="white"/>
</g>
<path d="M20 20.0027V23.5027V21.0027M20 20.0027L19 21.0027M20 20.0027L21 21.0027M20 20.0027V21.0027M19 21.0027H21M19 21.0027H20M21 21.0027H20M24.5 26.5027V24.0027M24.5 24.0027V23.0027M24.5 24.0027H23.5L24.5 23.0027M24.5 24.0027H25.5L24.5 23.0027M29.5 29.0027V26.5027M29.5 26.5027V25.5027M29.5 26.5027H28.5L29.5 25.5027M29.5 26.5027H30.5L29.5 25.5027M34.5 26.5027V24.0027M34.5 24.0027V23.0027M34.5 24.0027H33.5L34.5 23.0027M34.5 24.0027H35.5L34.5 23.0027M38.5 23.5027V21.0027M38.5 21.0027V20.0027M38.5 21.0027H37.5L38.5 20.0027M38.5 21.0027H39.5L38.5 20.0027M18 23.5027L27 29.5027L18.0515 35.1843L9 29.0027L18 23.5027ZM20.5 36.8564L29.4417 31.0519L38.6446 37.124L29.5 43.0027L20.5 36.8564ZM31.789 29.5027L41 35.6099L50.5 29.5027L41 23.5027L31.789 29.5027ZM20.5 17.8534L29.4417 12.049L38.6446 18.1211L29.5 23.9998L20.5 17.8534Z" stroke="#7D7D7D" stroke-opacity="0.6"/>
<defs>
<filter id="filter0_d_515_76" x="0" y="0" width="63" height="63" filterUnits="userSpaceOnUse" color-interpolation-filters="sRGB">
<feFlood flood-opacity="0" result="BackgroundImageFix"/>
<feColorMatrix in="SourceAlpha" type="matrix" values="0 0 0 0 0 0 0 0 0 0 0 0 0 0 0 0 0 0 127 0" result="hardAlpha"/>
<feOffset dx="2" dy="4"/>
<feGaussianBlur stdDeviation="2"/>
<feComposite in2="hardAlpha" operator="out"/>
<feColorMatrix type="matrix" values="0 0 0 0 0 0 0 0 0 0 0 0 0 0 0 0 0 0 0.25 0"/>
<feBlend mode="normal" in2="BackgroundImageFix" result="effect1_dropShadow_515_76"/>
<feBlend mode="normal" in="SourceGraphic" in2="effect1_dropShadow_515_76" result="shape"/>
</filter>
</defs>
</svg>
