<svg width="74" height="49" viewBox="0 0 74 49" fill="none" xmlns="http://www.w3.org/2000/svg">
<mask id="path-1-inside-1_320_700" fill="white">
<path d="M69.1652 24.5583C69.1652 35.1142 60.2829 43.6714 49.2869 43.6714C38.2908 43.6714 29.3928 35.1142 29.3928 24.5582C29.3928 14.0023 38.2908 5.44507 49.2869 5.44507C60.2829 5.44507 69.1652 14.0023 69.1652 24.5583Z"/>
</mask>
<path d="M48.2869 9.00101C48.2869 9.55329 48.7346 10.001 49.2869 10.001C49.8391 10.001 50.2869 9.55329 50.2869 9.00101H48.2869ZM60.2599 12.28C59.8615 12.6625 59.8485 13.2955 60.231 13.694C60.6135 14.0924 61.2465 14.1053 61.6449 13.7228L60.2599 12.28ZM36.8121 13.7228C37.2105 14.1053 37.8435 14.0924 38.226 13.694C38.6085 13.2955 38.5956 12.6625 38.1971 12.28L36.8121 13.7228ZM50.2869 40.1155C50.2869 39.5632 49.8391 39.1155 49.2869 39.1155C48.7346 39.1155 48.2869 39.5632 48.2869 40.1155H50.2869ZM65.4928 23.5582C64.9405 23.5582 64.4928 24.006 64.4928 24.5582C64.4928 25.1105 64.9405 25.5582 65.4928 25.5582L65.4928 23.5582ZM33.0809 25.5582C33.6332 25.5582 34.0809 25.1105 34.0809 24.5582C34.0809 24.006 33.6332 23.5582 33.0809 23.5582V25.5582ZM61.6449 35.4799C61.2465 35.0975 60.6135 35.1104 60.231 35.5088C59.8485 35.9072 59.8615 36.5403 60.2599 36.9227L61.6449 35.4799ZM38.1971 36.9227C38.5956 36.5403 38.6085 35.9072 38.226 35.5088C37.8435 35.1104 37.2105 35.0975 36.8121 35.4799L38.1971 36.9227ZM50.2869 13.0014C50.2869 12.4492 49.8391 12.0014 49.2869 12.0014C48.7346 12.0014 48.2869 12.4492 48.2869 13.0014H50.2869ZM49.2869 24.5582H48.2869C48.2869 25.1105 48.7346 25.5582 49.2868 25.5582L49.2869 24.5582ZM59.8568 25.5583C60.4091 25.5583 60.8568 25.1105 60.8568 24.5583C60.8568 24.006 60.4091 23.5583 59.8568 23.5583L59.8568 25.5583ZM48.2869 5.44507V9.00101H50.2869V5.44507H48.2869ZM62.4851 10.1439L60.2599 12.28L61.6449 13.7228L63.8702 11.5867L62.4851 10.1439ZM34.5868 11.5867L36.8121 13.7228L38.1971 12.28L35.9719 10.1439L34.5868 11.5867ZM50.2869 43.6714V40.1155H48.2869V43.6714H50.2869ZM69.1652 23.5583L65.4928 23.5582L65.4928 25.5582L69.1652 25.5583L69.1652 23.5583ZM29.3928 25.5582H33.0809V23.5582H29.3928V25.5582ZM63.8702 37.6161L61.6449 35.4799L60.2599 36.9227L62.4851 39.0589L63.8702 37.6161ZM35.9719 39.0589L38.1971 36.9227L36.8121 35.4799L34.5868 37.6161L35.9719 39.0589ZM48.2869 13.0014V24.5582H50.2869V13.0014H48.2869ZM49.2868 25.5582L59.8568 25.5583L59.8568 23.5583L49.2869 23.5582L49.2868 25.5582ZM67.1652 24.5583C67.1652 33.9375 59.2519 41.6714 49.2869 41.6714V45.6714C61.3139 45.6714 71.1652 36.2909 71.1652 24.5583H67.1652ZM49.2869 41.6714C39.3197 41.6714 31.3928 33.9354 31.3928 24.5582H27.3928C27.3928 36.2929 37.2619 45.6714 49.2869 45.6714V41.6714ZM31.3928 24.5582C31.3928 15.1811 39.3197 7.44507 49.2869 7.44507V3.44507C37.2619 3.44507 27.3928 12.8236 27.3928 24.5582H31.3928ZM49.2869 7.44507C59.2519 7.44507 67.1652 15.1791 67.1652 24.5583H71.1652C71.1652 12.8256 61.3139 3.44507 49.2869 3.44507V7.44507Z" fill="white" mask="url(#path-1-inside-1_320_700)"/>
<path d="M72.8279 24.5581C72.8279 36.9785 62.3274 47.1162 49.2875 47.1162C36.2476 47.1162 25.7471 36.9785 25.7471 24.5581C25.7471 12.1377 36.2476 2 49.2875 2C62.3274 2 72.8279 12.1377 72.8279 24.5581Z" stroke="white" stroke-width="2"/>
<path d="M23.0313 0.812256C22.479 0.812256 22.0313 1.25997 22.0313 1.81226C22.0313 2.36454 22.479 2.81226 23.0313 2.81226V0.812256ZM19.7559 2.81226C20.3082 2.81226 20.7559 2.36454 20.7559 1.81226C20.7559 1.25997 20.3082 0.812256 19.7559 0.812256V2.81226ZM1.00003 0.812256C0.447747 0.812256 3.14713e-05 1.25997 3.14713e-05 1.81226C3.14713e-05 2.36454 0.447747 2.81226 1.00003 2.81226V0.812256ZM31.9216 9.94818C32.4739 9.94818 32.9216 9.50046 32.9216 8.94818C32.9216 8.39589 32.4739 7.94818 31.9216 7.94818V9.94818ZM17.4164 7.94818C16.8641 7.94818 16.4164 8.39589 16.4164 8.94818C16.4164 9.50046 16.8641 9.94818 17.4164 9.94818V7.94818ZM25.8388 30.464C26.391 30.464 26.8388 30.0162 26.8388 29.464C26.8388 28.9117 26.391 28.464 25.8388 28.464V30.464ZM19.288 28.464C18.7357 28.464 18.288 28.9117 18.288 29.464C18.288 30.0162 18.7357 30.464 19.288 30.464V28.464ZM25.8388 20.6521C26.391 20.6521 26.8388 20.2043 26.8388 19.6521C26.8388 19.0998 26.391 18.6521 25.8388 18.6521V20.6521ZM19.7559 18.6521C19.2036 18.6521 18.7559 19.0998 18.7559 19.6521C18.7559 20.2043 19.2036 20.6521 19.7559 20.6521V18.6521ZM17.8843 25.558C18.4366 25.558 18.8843 25.1103 18.8843 24.558C18.8843 24.0057 18.4366 23.558 17.8843 23.558V25.558ZM11.3335 23.558C10.7813 23.558 10.3335 24.0057 10.3335 24.558C10.3335 25.1103 10.7813 25.558 11.3335 25.558V23.558ZM31.5084 40.7218C32.0607 40.7218 32.5084 40.2741 32.5084 39.7218C32.5084 39.1696 32.0607 38.7218 31.5084 38.7218V40.7218ZM17.4164 38.7218C16.8641 38.7218 16.4164 39.1696 16.4164 39.7218C16.4164 40.2741 16.8641 40.7218 17.4164 40.7218V38.7218ZM13.6731 9.94818C14.2254 9.94818 14.6731 9.50046 14.6731 8.94818C14.6731 8.39589 14.2254 7.94818 13.6731 7.94818V9.94818ZM11.3335 7.94818C10.7813 7.94818 10.3335 8.39589 10.3335 8.94818C10.3335 9.50046 10.7813 9.94818 11.3335 9.94818V7.94818ZM13.6731 40.7218C14.2254 40.7218 14.6731 40.2741 14.6731 39.7218C14.6731 39.1696 14.2254 38.7218 13.6731 38.7218V40.7218ZM11.3335 38.7218C10.7813 38.7218 10.3335 39.1696 10.3335 39.7218C10.3335 40.2741 10.7813 40.7218 11.3335 40.7218V38.7218ZM23.4992 46.3038C22.9469 46.3038 22.4992 46.7515 22.4992 47.3038C22.4992 47.8561 22.9469 48.3038 23.4992 48.3038V46.3038ZM20.2238 48.3038C20.7761 48.3038 21.2238 47.8561 21.2238 47.3038C21.2238 46.7515 20.7761 46.3038 20.2238 46.3038V48.3038ZM5.69905 46.3038C5.14676 46.3038 4.69905 46.7515 4.69905 47.3038C4.69905 47.8561 5.14676 48.3038 5.69905 48.3038V46.3038ZM49.2343 0.812256H23.0313V2.81226H49.2343V0.812256ZM19.7559 0.812256H1.00003V2.81226H19.7559V0.812256ZM31.9216 7.94818H17.4164V9.94818H31.9216V7.94818ZM25.8388 28.464H19.288V30.464H25.8388V28.464ZM25.8388 18.6521H19.7559V20.6521H25.8388V18.6521ZM17.8843 23.558H11.3335V25.558H17.8843V23.558ZM31.5084 38.7218H17.4164V40.7218H31.5084V38.7218ZM13.6731 7.94818H11.3335V9.94818H13.6731V7.94818ZM13.6731 38.7218H11.3335V40.7218H13.6731V38.7218ZM49.7022 46.3038H23.4992V48.3038H49.7022V46.3038ZM20.2238 46.3038H5.69905V48.3038H20.2238V46.3038Z" fill="white"/>
</svg>
