<svg width="75" height="57" viewBox="0 0 75 57" fill="none" xmlns="http://www.w3.org/2000/svg">
<path d="M20.8193 15.6188V21.6116V17.3311M20.8193 15.6188L19.1084 17.3311M20.8193 15.6188L22.5301 17.3311M20.8193 15.6188V17.3311M19.1084 17.3311H22.5301M19.1084 17.3311H20.8193M22.5301 17.3311H20.8193M28.5181 26.7483V22.4677M28.5181 22.4677V20.7555M28.5181 22.4677H26.8072L28.5181 20.7555M28.5181 22.4677H30.2289L28.5181 20.7555M37.0723 31.0289V26.7483M37.0723 26.7483V25.0361M37.0723 26.7483H35.3614L37.0723 25.0361M37.0723 26.7483H38.7831L37.0723 25.0361M45.6265 26.7483V22.4677M45.6265 22.4677V20.7555M45.6265 22.4677H43.9157L45.6265 20.7555M45.6265 22.4677H47.3373L45.6265 20.7555M52.4699 21.6116V17.3311M52.4699 17.3311V15.6188M52.4699 17.3311H50.759L52.4699 15.6188M52.4699 17.3311H54.1807L52.4699 15.6188M17.3976 21.6116L32.7952 31.885L17.4858 41.613L2 31.0289L17.3976 21.6116ZM21.6747 44.4761L36.9726 34.5376L52.7173 44.9343L37.0723 55L21.6747 44.4761ZM40.9885 31.885L56.747 42.3418L73 31.885L56.747 21.6116L40.9885 31.885ZM21.6747 11.9388L36.9726 2.00031L52.7173 12.3971L37.0723 22.4627L21.6747 11.9388Z" stroke="white" stroke-width="2"/>
</svg>
