<svg width="41" height="52" viewBox="0 0 41 52" fill="none" xmlns="http://www.w3.org/2000/svg">
<path d="M20.4998 52C14.6153 50.2652 9.72749 46.7268 5.8364 41.3849C1.9453 36.0429 -0.000244141 30.0234 -0.000244141 23.3266V7.60302L20.4998 0L40.9998 7.60302V23.3266C40.9998 30.0215 39.0542 36.04 35.1631 41.3819C31.272 46.7239 26.3842 50.2613 20.4998 52ZM20.4998 48.9152C25.5759 47.3161 29.7736 44.1179 33.0926 39.3205C36.4117 34.5232 38.0712 29.1929 38.0712 23.3295V9.58882L20.4998 3.10517L2.92833 9.58882V23.3266C2.92833 29.19 4.58785 34.5203 7.9069 39.3176C11.2259 44.115 15.4236 47.3161 20.4998 48.9152ZM14.7568 36.5672H26.2427C26.9143 36.5672 27.4766 36.3423 27.9295 35.8927C28.3825 35.443 28.609 34.8847 28.609 34.2179V25.7194C28.609 25.0546 28.3825 24.4973 27.9295 24.0476C27.4766 23.5979 26.9143 23.3731 26.2427 23.3731H25.736V20.4656C25.736 19.0138 25.2382 17.7927 24.2425 16.8022C23.2468 15.8137 22.0177 15.3194 20.5554 15.3194C19.0931 15.3194 17.864 15.8137 16.8683 16.8022C15.8726 17.7908 15.3748 19.0119 15.3748 20.4656V23.3731H14.7539C14.0842 23.3731 13.5229 23.5979 13.07 24.0476C12.617 24.4973 12.3905 25.0546 12.3905 25.7194V34.2179C12.3905 34.8847 12.617 35.443 13.07 35.8927C13.5229 36.3423 14.0852 36.5672 14.7568 36.5672ZM17.6268 23.3731V20.4656C17.6268 19.6419 17.908 18.9509 18.4703 18.3926C19.0325 17.8344 19.7276 17.5553 20.5554 17.5553C21.3832 17.5553 22.0792 17.8344 22.6435 18.3926C23.2077 18.9509 23.4879 19.6419 23.484 20.4656V23.3731H17.6268Z" fill="white"/>
</svg>
