<svg width="53" height="48" viewBox="0 0 53 48" fill="none" xmlns="http://www.w3.org/2000/svg">
<path d="M11.1298 -0.25L11.4115 10.8723L23.1358 17.4374L11.1298 -0.25ZM40.176 2.26535L29.3284 6.26982L31.6594 25.2998L40.176 2.26535ZM53.0032 11.0324L38.0953 17.705L45.6169 31.0365L46.2465 32.157L45.0219 32.5433L35.886 35.4133L42.2804 40.8962L44.9245 43.1645L41.47 42.7192L13.1681 39.0661L9.22644 38.5582L12.9107 37.0692L27.0702 31.3531L17.3154 26.9731L0.19873 34.641V49.1867H53.0031L53.0032 11.0324ZM13.1719 16.6512L2.4254 19.1733L29.9061 27.2271L13.1719 16.6512Z" fill="white"/>
</svg>
